<svg width="36" height="64" viewBox="0 0 36 64" fill="none" xmlns="http://www.w3.org/2000/svg">
<path d="M1.836 29C1.716 29 1.614 28.958 1.53 28.874C1.446 28.79 1.404 28.688 1.404 28.568V16.832C1.404 16.712 1.446 16.61 1.53 16.526C1.614 16.442 1.716 16.4 1.836 16.4H3.51C3.63 16.4 3.732 16.442 3.816 16.526C3.9 16.61 3.942 16.712 3.942 16.832V26.858H9.648C9.78 26.858 9.888 26.9 9.972 26.984C10.056 27.068 10.098 27.176 10.098 27.308V28.568C10.098 28.688 10.056 28.79 9.972 28.874C9.888 28.958 9.78 29 9.648 29H1.836ZM15.6288 29.18C14.6688 29.18 13.8588 29.012 13.1988 28.676C12.5508 28.34 12.0528 27.866 11.7048 27.254C11.3688 26.642 11.1768 25.928 11.1288 25.112C11.1168 24.896 11.1108 24.632 11.1108 24.32C11.1108 24.008 11.1168 23.744 11.1288 23.528C11.1768 22.7 11.3748 21.986 11.7228 21.386C12.0828 20.774 12.5868 20.3 13.2348 19.964C13.8948 19.628 14.6928 19.46 15.6288 19.46C16.5648 19.46 17.3568 19.628 18.0048 19.964C18.6648 20.3 19.1688 20.774 19.5168 21.386C19.8768 21.986 20.0808 22.7 20.1288 23.528C20.1408 23.744 20.1468 24.008 20.1468 24.32C20.1468 24.632 20.1408 24.896 20.1288 25.112C20.0808 25.928 19.8828 26.642 19.5348 27.254C19.1988 27.866 18.7008 28.34 18.0408 28.676C17.3928 29.012 16.5888 29.18 15.6288 29.18ZM15.6288 27.398C16.2648 27.398 16.7568 27.2 17.1048 26.804C17.4528 26.396 17.6448 25.802 17.6808 25.022C17.6928 24.842 17.6988 24.608 17.6988 24.32C17.6988 24.032 17.6928 23.798 17.6808 23.618C17.6448 22.838 17.4528 22.25 17.1048 21.854C16.7568 21.446 16.2648 21.242 15.6288 21.242C14.9928 21.242 14.5008 21.446 14.1528 21.854C13.8048 22.25 13.6128 22.838 13.5768 23.618C13.5648 23.798 13.5588 24.032 13.5588 24.32C13.5588 24.608 13.5648 24.842 13.5768 25.022C13.6128 25.802 13.8048 26.396 14.1528 26.804C14.5008 27.2 14.9928 27.398 15.6288 27.398ZM22.5731 29C22.4531 29 22.3511 28.958 22.2671 28.874C22.1831 28.79 22.1411 28.688 22.1411 28.568V20.09C22.1411 19.958 22.1831 19.85 22.2671 19.766C22.3511 19.682 22.4531 19.64 22.5731 19.64H24.0311C24.1511 19.64 24.2531 19.682 24.3371 19.766C24.4331 19.85 24.4811 19.958 24.4811 20.09V20.828C24.7571 20.444 25.1111 20.15 25.5431 19.946C25.9871 19.742 26.4971 19.64 27.0731 19.64H27.8111C27.9431 19.64 28.0451 19.682 28.1171 19.766C28.2011 19.85 28.2431 19.952 28.2431 20.072V21.368C28.2431 21.488 28.2011 21.59 28.1171 21.674C28.0451 21.758 27.9431 21.8 27.8111 21.8H26.4071C25.8311 21.8 25.3811 21.962 25.0571 22.286C24.7451 22.598 24.5891 23.042 24.5891 23.618V28.568C24.5891 28.688 24.5471 28.79 24.4631 28.874C24.3791 28.958 24.2711 29 24.1391 29H22.5731ZM33.5559 29.18C32.2239 29.18 31.1679 28.796 30.3879 28.028C29.6079 27.26 29.1879 26.168 29.1279 24.752C29.1159 24.632 29.1099 24.482 29.1099 24.302C29.1099 24.11 29.1159 23.96 29.1279 23.852C29.1759 22.94 29.3799 22.16 29.7399 21.512C30.1119 20.852 30.6219 20.348 31.2699 20C31.9179 19.64 32.6799 19.46 33.5559 19.46C34.5279 19.46 35.3439 19.664 36.0039 20.072C36.6639 20.468 37.1619 21.026 37.4979 21.746C37.8339 22.454 38.0019 23.276 38.0019 24.212V24.59C38.0019 24.71 37.9599 24.812 37.8759 24.896C37.7919 24.98 37.6839 25.022 37.5519 25.022H31.5759C31.5759 25.022 31.5759 25.04 31.5759 25.076C31.5759 25.112 31.5759 25.142 31.5759 25.166C31.5879 25.586 31.6659 25.976 31.8099 26.336C31.9659 26.684 32.1879 26.966 32.4759 27.182C32.7759 27.398 33.1299 27.506 33.5379 27.506C33.8739 27.506 34.1559 27.458 34.3839 27.362C34.6119 27.254 34.7979 27.134 34.9419 27.002C35.0859 26.87 35.1879 26.762 35.2479 26.678C35.3559 26.534 35.4399 26.45 35.4999 26.426C35.5719 26.39 35.6739 26.372 35.8059 26.372H37.3539C37.4739 26.372 37.5699 26.408 37.6419 26.48C37.7259 26.552 37.7619 26.642 37.7499 26.75C37.7379 26.942 37.6359 27.176 37.4439 27.452C37.2639 27.728 36.9999 27.998 36.6519 28.262C36.3039 28.526 35.8659 28.748 35.3379 28.928C34.8219 29.096 34.2279 29.18 33.5559 29.18ZM31.5759 23.51H35.5539V23.456C35.5539 22.988 35.4759 22.58 35.3199 22.232C35.1639 21.872 34.9359 21.596 34.6359 21.404C34.3359 21.2 33.9759 21.098 33.5559 21.098C33.1359 21.098 32.7759 21.2 32.4759 21.404C32.1759 21.596 31.9479 21.872 31.7919 22.232C31.6479 22.58 31.5759 22.988 31.5759 23.456V23.51ZM40.3446 29C40.2246 29 40.1226 28.958 40.0386 28.874C39.9546 28.79 39.9126 28.688 39.9126 28.568V20.072C39.9126 19.952 39.9546 19.85 40.0386 19.766C40.1226 19.682 40.2246 19.64 40.3446 19.64H41.7486C41.8686 19.64 41.9706 19.682 42.0546 19.766C42.1386 19.85 42.1806 19.952 42.1806 20.072V20.684C42.4326 20.348 42.7686 20.066 43.1886 19.838C43.6206 19.598 44.1306 19.472 44.7186 19.46C46.0866 19.436 47.0406 19.97 47.5806 21.062C47.8566 20.582 48.2526 20.198 48.7686 19.91C49.2966 19.61 49.8786 19.46 50.5146 19.46C51.1386 19.46 51.7026 19.604 52.2066 19.892C52.7226 20.18 53.1246 20.618 53.4126 21.206C53.7126 21.782 53.8626 22.514 53.8626 23.402V28.568C53.8626 28.688 53.8206 28.79 53.7366 28.874C53.6526 28.958 53.5506 29 53.4306 29H51.9546C51.8346 29 51.7326 28.958 51.6486 28.874C51.5646 28.79 51.5226 28.688 51.5226 28.568V23.546C51.5226 23.006 51.4446 22.58 51.2886 22.268C51.1326 21.944 50.9226 21.716 50.6586 21.584C50.3946 21.452 50.1006 21.386 49.7766 21.386C49.5126 21.386 49.2486 21.452 48.9846 21.584C48.7206 21.716 48.5046 21.944 48.3366 22.268C48.1686 22.58 48.0846 23.006 48.0846 23.546V28.568C48.0846 28.688 48.0426 28.79 47.9586 28.874C47.8746 28.958 47.7726 29 47.6526 29H46.1766C46.0566 29 45.9546 28.958 45.8706 28.874C45.7866 28.79 45.7446 28.688 45.7446 28.568V23.546C45.7446 23.006 45.6606 22.58 45.4926 22.268C45.3246 21.944 45.1086 21.716 44.8446 21.584C44.5806 21.452 44.2986 21.386 43.9986 21.386C43.7226 21.386 43.4526 21.458 43.1886 21.602C42.9246 21.734 42.7086 21.956 42.5406 22.268C42.3726 22.58 42.2886 23.006 42.2886 23.546V28.568C42.2886 28.688 42.2466 28.79 42.1626 28.874C42.0786 28.958 41.9766 29 41.8566 29H40.3446ZM60.9161 29C60.7961 29 60.6941 28.958 60.6101 28.874C60.5261 28.79 60.4841 28.688 60.4841 28.568V16.832C60.4841 16.712 60.5261 16.61 60.6101 16.526C60.6941 16.442 60.7961 16.4 60.9161 16.4H62.6081C62.7401 16.4 62.8421 16.442 62.9141 16.526C62.9981 16.61 63.0401 16.712 63.0401 16.832V28.568C63.0401 28.688 62.9981 28.79 62.9141 28.874C62.8421 28.958 62.7401 29 62.6081 29H60.9161ZM66.097 32.42C65.977 32.42 65.875 32.378 65.791 32.294C65.707 32.21 65.665 32.108 65.665 31.988V20.072C65.665 19.952 65.707 19.85 65.791 19.766C65.875 19.682 65.977 19.64 66.097 19.64H67.519C67.651 19.64 67.753 19.682 67.825 19.766C67.909 19.85 67.951 19.952 67.951 20.072V20.792C68.239 20.408 68.617 20.09 69.085 19.838C69.553 19.586 70.135 19.46 70.831 19.46C71.467 19.46 72.019 19.562 72.487 19.766C72.955 19.97 73.345 20.264 73.657 20.648C73.969 21.02 74.209 21.464 74.377 21.98C74.545 22.496 74.641 23.066 74.665 23.69C74.677 23.894 74.683 24.104 74.683 24.32C74.683 24.536 74.677 24.752 74.665 24.968C74.653 25.568 74.563 26.126 74.395 26.642C74.227 27.146 73.981 27.59 73.657 27.974C73.345 28.346 72.955 28.64 72.487 28.856C72.019 29.072 71.467 29.18 70.831 29.18C70.183 29.18 69.631 29.066 69.175 28.838C68.719 28.598 68.347 28.286 68.059 27.902V31.988C68.059 32.108 68.017 32.21 67.933 32.294C67.861 32.378 67.759 32.42 67.627 32.42H66.097ZM70.165 27.254C70.681 27.254 71.083 27.146 71.371 26.93C71.659 26.702 71.869 26.408 72.001 26.048C72.133 25.688 72.211 25.292 72.235 24.86C72.247 24.5 72.247 24.14 72.235 23.78C72.211 23.348 72.133 22.952 72.001 22.592C71.869 22.232 71.659 21.944 71.371 21.728C71.083 21.5 70.681 21.386 70.165 21.386C69.673 21.386 69.271 21.5 68.959 21.728C68.659 21.956 68.437 22.25 68.293 22.61C68.161 22.958 68.083 23.318 68.059 23.69C68.047 23.906 68.041 24.134 68.041 24.374C68.041 24.614 68.047 24.848 68.059 25.076C68.071 25.436 68.155 25.784 68.311 26.12C68.467 26.444 68.695 26.714 68.995 26.93C69.295 27.146 69.685 27.254 70.165 27.254ZM80.2496 29.18C79.5296 29.18 78.9116 29.096 78.3956 28.928C77.8916 28.76 77.4776 28.55 77.1536 28.298C76.8296 28.046 76.5896 27.794 76.4336 27.542C76.2776 27.29 76.1936 27.08 76.1816 26.912C76.1696 26.78 76.2056 26.678 76.2896 26.606C76.3856 26.522 76.4876 26.48 76.5956 26.48H78.0176C78.0656 26.48 78.1076 26.486 78.1436 26.498C78.1796 26.51 78.2276 26.546 78.2876 26.606C78.4436 26.738 78.6056 26.876 78.7736 27.02C78.9536 27.164 79.1636 27.29 79.4036 27.398C79.6436 27.494 79.9436 27.542 80.3036 27.542C80.7716 27.542 81.1616 27.452 81.4736 27.272C81.7976 27.08 81.9596 26.81 81.9596 26.462C81.9596 26.21 81.8876 26.006 81.7436 25.85C81.6116 25.694 81.3596 25.556 80.9876 25.436C80.6156 25.304 80.0876 25.166 79.4036 25.022C78.7316 24.866 78.1736 24.668 77.7296 24.428C77.2856 24.188 76.9556 23.888 76.7396 23.528C76.5236 23.168 76.4156 22.748 76.4156 22.268C76.4156 21.8 76.5536 21.356 76.8296 20.936C77.1176 20.504 77.5376 20.15 78.0896 19.874C78.6536 19.598 79.3496 19.46 80.1776 19.46C80.8256 19.46 81.3896 19.544 81.8696 19.712C82.3496 19.868 82.7456 20.066 83.0576 20.306C83.3816 20.546 83.6276 20.792 83.7956 21.044C83.9636 21.284 84.0536 21.494 84.0656 21.674C84.0776 21.806 84.0416 21.914 83.9576 21.998C83.8736 22.07 83.7776 22.106 83.6696 22.106H82.3376C82.2776 22.106 82.2236 22.094 82.1756 22.07C82.1276 22.046 82.0796 22.016 82.0316 21.98C81.8996 21.86 81.7556 21.734 81.5996 21.602C81.4436 21.458 81.2516 21.338 81.0236 21.242C80.8076 21.146 80.5196 21.098 80.1596 21.098C79.7036 21.098 79.3556 21.2 79.1156 21.404C78.8756 21.596 78.7556 21.842 78.7556 22.142C78.7556 22.346 78.8096 22.526 78.9176 22.682C79.0376 22.826 79.2716 22.964 79.6196 23.096C79.9676 23.228 80.4956 23.366 81.2036 23.51C82.0076 23.654 82.6436 23.87 83.1116 24.158C83.5916 24.434 83.9276 24.758 84.1196 25.13C84.3236 25.49 84.4256 25.892 84.4256 26.336C84.4256 26.876 84.2636 27.362 83.9396 27.794C83.6276 28.226 83.1596 28.568 82.5356 28.82C81.9236 29.06 81.1616 29.18 80.2496 29.18ZM89.7577 29.18C89.0257 29.18 88.3897 29.018 87.8497 28.694C87.3217 28.358 86.9137 27.89 86.6257 27.29C86.3377 26.678 86.1937 25.958 86.1937 25.13V20.072C86.1937 19.952 86.2357 19.85 86.3197 19.766C86.4037 19.682 86.5057 19.64 86.6257 19.64H88.2097C88.3417 19.64 88.4437 19.682 88.5157 19.766C88.5997 19.85 88.6417 19.952 88.6417 20.072V25.022C88.6417 26.51 89.2957 27.254 90.6037 27.254C91.2277 27.254 91.7197 27.056 92.0797 26.66C92.4517 26.264 92.6377 25.718 92.6377 25.022V20.072C92.6377 19.952 92.6797 19.85 92.7637 19.766C92.8477 19.682 92.9497 19.64 93.0697 19.64H94.6537C94.7737 19.64 94.8757 19.682 94.9597 19.766C95.0437 19.85 95.0857 19.952 95.0857 20.072V28.568C95.0857 28.688 95.0437 28.79 94.9597 28.874C94.8757 28.958 94.7737 29 94.6537 29H93.1957C93.0637 29 92.9557 28.958 92.8717 28.874C92.7997 28.79 92.7637 28.688 92.7637 28.568V27.83C92.4397 28.25 92.0377 28.58 91.5577 28.82C91.0777 29.06 90.4777 29.18 89.7577 29.18ZM97.8954 29C97.7754 29 97.6734 28.958 97.5894 28.874C97.5054 28.79 97.4634 28.688 97.4634 28.568V20.072C97.4634 19.952 97.5054 19.85 97.5894 19.766C97.6734 19.682 97.7754 19.64 97.8954 19.64H99.2994C99.4194 19.64 99.5214 19.682 99.6054 19.766C99.6894 19.85 99.7314 19.952 99.7314 20.072V20.684C99.9834 20.348 100.319 20.066 100.739 19.838C101.171 19.598 101.681 19.472 102.269 19.46C103.637 19.436 104.591 19.97 105.131 21.062C105.407 20.582 105.803 20.198 106.319 19.91C106.847 19.61 107.429 19.46 108.065 19.46C108.689 19.46 109.253 19.604 109.757 19.892C110.273 20.18 110.675 20.618 110.963 21.206C111.263 21.782 111.413 22.514 111.413 23.402V28.568C111.413 28.688 111.371 28.79 111.287 28.874C111.203 28.958 111.101 29 110.981 29H109.505C109.385 29 109.283 28.958 109.199 28.874C109.115 28.79 109.073 28.688 109.073 28.568V23.546C109.073 23.006 108.995 22.58 108.839 22.268C108.683 21.944 108.473 21.716 108.209 21.584C107.945 21.452 107.651 21.386 107.327 21.386C107.063 21.386 106.799 21.452 106.535 21.584C106.271 21.716 106.055 21.944 105.887 22.268C105.719 22.58 105.635 23.006 105.635 23.546V28.568C105.635 28.688 105.593 28.79 105.509 28.874C105.425 28.958 105.323 29 105.203 29H103.727C103.607 29 103.505 28.958 103.421 28.874C103.337 28.79 103.295 28.688 103.295 28.568V23.546C103.295 23.006 103.211 22.58 103.043 22.268C102.875 21.944 102.659 21.716 102.395 21.584C102.131 21.452 101.849 21.386 101.549 21.386C101.273 21.386 101.003 21.458 100.739 21.602C100.475 21.734 100.259 21.956 100.091 22.268C99.9234 22.58 99.8394 23.006 99.8394 23.546V28.568C99.8394 28.688 99.7974 28.79 99.7134 28.874C99.6294 28.958 99.5274 29 99.4074 29H97.8954Z" fill="black"/>
<path d="M5.424 57.16C4.44267 57.16 3.62667 56.9787 2.976 56.616C2.336 56.2533 1.85067 55.7467 1.52 55.096C1.18933 54.4453 1.008 53.688 0.976 52.824C0.965333 52.3867 0.96 51.9173 0.96 51.416C0.96 50.9147 0.965333 50.4347 0.976 49.976C1.008 49.112 1.18933 48.3547 1.52 47.704C1.85067 47.0533 2.336 46.5467 2.976 46.184C3.62667 45.8213 4.44267 45.64 5.424 45.64C6.16 45.64 6.80533 45.7413 7.36 45.944C7.91467 46.1467 8.37333 46.4187 8.736 46.76C9.10933 47.1013 9.392 47.4853 9.584 47.912C9.776 48.328 9.88267 48.76 9.904 49.208C9.91467 49.304 9.88267 49.384 9.808 49.448C9.744 49.512 9.664 49.544 9.568 49.544H8.688C8.592 49.544 8.50667 49.5173 8.432 49.464C8.368 49.4107 8.32 49.3147 8.288 49.176C8.10667 48.344 7.76533 47.7733 7.264 47.464C6.77333 47.1547 6.16 47 5.424 47C4.56 47 3.87733 47.2453 3.376 47.736C2.87467 48.216 2.608 48.9893 2.576 50.056C2.544 50.9307 2.544 51.8267 2.576 52.744C2.608 53.8107 2.87467 54.5893 3.376 55.08C3.87733 55.56 4.56 55.8 5.424 55.8C6.16 55.8 6.77333 55.6453 7.264 55.336C7.76533 55.0267 8.10667 54.456 8.288 53.624C8.32 53.4853 8.368 53.3893 8.432 53.336C8.50667 53.2827 8.592 53.256 8.688 53.256H9.568C9.664 53.256 9.744 53.288 9.808 53.352C9.88267 53.4053 9.91467 53.48 9.904 53.576C9.88267 54.024 9.776 54.4613 9.584 54.888C9.392 55.3147 9.10933 55.6987 8.736 56.04C8.37333 56.3813 7.91467 56.6533 7.36 56.856C6.80533 57.0587 6.16 57.16 5.424 57.16ZM12.4163 57C12.2989 57 12.2083 56.968 12.1443 56.904C12.0803 56.8293 12.0483 56.7387 12.0483 56.632V46.184C12.0483 46.0667 12.0803 45.976 12.1443 45.912C12.2083 45.8373 12.2989 45.8 12.4163 45.8H19.0243C19.1416 45.8 19.2323 45.8373 19.2963 45.912C19.3603 45.976 19.3923 46.0667 19.3923 46.184V46.792C19.3923 46.9093 19.3603 47 19.2963 47.064C19.2323 47.128 19.1416 47.16 19.0243 47.16H13.5843V50.664H18.6723C18.7896 50.664 18.8803 50.7013 18.9443 50.776C19.0083 50.84 19.0403 50.9307 19.0403 51.048V51.64C19.0403 51.7467 19.0083 51.8373 18.9443 51.912C18.8803 51.976 18.7896 52.008 18.6723 52.008H13.5843V55.64H19.1523C19.2696 55.64 19.3603 55.672 19.4243 55.736C19.4883 55.8 19.5203 55.8907 19.5203 56.008V56.632C19.5203 56.7387 19.4883 56.8293 19.4243 56.904C19.3603 56.968 19.2696 57 19.1523 57H12.4163ZM25.674 57.16C24.7567 57.16 23.9727 57.0053 23.322 56.696C22.6713 56.376 22.17 55.8907 21.818 55.24C21.466 54.5787 21.2687 53.752 21.226 52.76C21.2153 52.2907 21.21 51.8427 21.21 51.416C21.21 50.9787 21.2153 50.5253 21.226 50.056C21.2687 49.0747 21.4713 48.2587 21.834 47.608C22.2073 46.9467 22.7193 46.456 23.37 46.136C24.0313 45.8053 24.7993 45.64 25.674 45.64C26.538 45.64 27.2953 45.8053 27.946 46.136C28.6073 46.456 29.1247 46.9467 29.498 47.608C29.8713 48.2587 30.074 49.0747 30.106 50.056C30.1273 50.5253 30.138 50.9787 30.138 51.416C30.138 51.8427 30.1273 52.2907 30.106 52.76C30.074 53.752 29.8767 54.5787 29.514 55.24C29.162 55.8907 28.6607 56.376 28.01 56.696C27.3593 57.0053 26.5807 57.16 25.674 57.16ZM25.674 55.8C26.4847 55.8 27.146 55.5547 27.658 55.064C28.1807 54.5733 28.4633 53.7787 28.506 52.68C28.5273 52.2 28.538 51.7733 28.538 51.4C28.538 51.016 28.5273 50.5893 28.506 50.12C28.4847 49.384 28.346 48.7867 28.09 48.328C27.8447 47.8693 27.514 47.5333 27.098 47.32C26.682 47.1067 26.2073 47 25.674 47C25.1407 47 24.666 47.1067 24.25 47.32C23.834 47.5333 23.498 47.8693 23.242 48.328C22.9967 48.7867 22.858 49.384 22.826 50.12C22.8153 50.5893 22.81 51.016 22.81 51.4C22.81 51.7733 22.8153 52.2 22.826 52.68C22.8687 53.7787 23.1513 54.5733 23.674 55.064C24.1967 55.5547 24.8633 55.8 25.674 55.8ZM39.592 57.16C38.7813 57.16 38.104 57.0053 37.56 56.696C37.016 56.3867 36.6 55.96 36.312 55.416C36.024 54.8613 35.864 54.232 35.832 53.528C35.8213 53.3467 35.816 53.1173 35.816 52.84C35.816 52.552 35.8213 52.3227 35.832 52.152C35.864 51.4373 36.024 50.808 36.312 50.264C36.6107 49.72 37.032 49.2933 37.576 48.984C38.12 48.6747 38.792 48.52 39.592 48.52C40.392 48.52 41.064 48.6747 41.608 48.984C42.152 49.2933 42.568 49.72 42.856 50.264C43.1547 50.808 43.32 51.4373 43.352 52.152C43.3627 52.3227 43.368 52.552 43.368 52.84C43.368 53.1173 43.3627 53.3467 43.352 53.528C43.32 54.232 43.16 54.8613 42.872 55.416C42.584 55.96 42.168 56.3867 41.624 56.696C41.08 57.0053 40.4027 57.16 39.592 57.16ZM39.592 55.928C40.2533 55.928 40.7813 55.72 41.176 55.304C41.5707 54.8773 41.784 54.2587 41.816 53.448C41.8267 53.288 41.832 53.0853 41.832 52.84C41.832 52.5947 41.8267 52.392 41.816 52.232C41.784 51.4213 41.5707 50.808 41.176 50.392C40.7813 49.9653 40.2533 49.752 39.592 49.752C38.9307 49.752 38.3973 49.9653 37.992 50.392C37.5973 50.808 37.3893 51.4213 37.368 52.232C37.3573 52.392 37.352 52.5947 37.352 52.84C37.352 53.0853 37.3573 53.288 37.368 53.448C37.3893 54.2587 37.5973 54.8773 37.992 55.304C38.3973 55.72 38.9307 55.928 39.592 55.928ZM46.4778 57C46.3711 57 46.2804 56.968 46.2057 56.904C46.1418 56.8293 46.1098 56.7387 46.1098 56.632V49.96H44.7498C44.6431 49.96 44.5524 49.928 44.4778 49.864C44.4138 49.7893 44.3818 49.6987 44.3818 49.592V49.048C44.3818 48.9413 44.4138 48.856 44.4778 48.792C44.5524 48.7173 44.6431 48.68 44.7498 48.68H46.1098V47.88C46.1098 47.336 46.2004 46.8613 46.3818 46.456C46.5631 46.04 46.8511 45.72 47.2458 45.496C47.6511 45.272 48.1898 45.16 48.8618 45.16H49.8218C49.9284 45.16 50.0138 45.1973 50.0778 45.272C50.1524 45.336 50.1898 45.4213 50.1898 45.528V46.072C50.1898 46.1787 50.1524 46.2693 50.0778 46.344C50.0138 46.408 49.9284 46.44 49.8218 46.44H48.8938C48.3924 46.44 48.0511 46.5733 47.8698 46.84C47.6884 47.096 47.5978 47.4693 47.5978 47.96V48.68H49.6618C49.7684 48.68 49.8538 48.7173 49.9178 48.792C49.9924 48.856 50.0298 48.9413 50.0298 49.048V49.592C50.0298 49.6987 49.9924 49.7893 49.9178 49.864C49.8538 49.928 49.7684 49.96 49.6618 49.96H47.5978V56.632C47.5978 56.7387 47.5604 56.8293 47.4858 56.904C47.4218 56.968 47.3364 57 47.2298 57H46.4778ZM54.5325 57C54.4472 57 54.3672 56.968 54.2925 56.904C54.2285 56.84 54.1965 56.7653 54.1965 56.68C54.1965 56.6373 54.2018 56.6 54.2125 56.568C54.2338 56.5253 54.2498 56.4933 54.2605 56.472L57.9245 51.304L54.4365 46.328C54.4045 46.264 54.3885 46.1947 54.3885 46.12C54.3885 46.0347 54.4205 45.96 54.4845 45.896C54.5485 45.832 54.6232 45.8 54.7085 45.8H55.6685C55.7752 45.8 55.8605 45.8267 55.9245 45.88C55.9885 45.9227 56.0472 45.9867 56.1005 46.072L58.9165 50.072L61.7165 46.072C61.7592 45.9867 61.8125 45.9227 61.8765 45.88C61.9512 45.8267 62.0365 45.8 62.1325 45.8H63.0445C63.1298 45.8 63.2045 45.832 63.2685 45.896C63.3325 45.96 63.3645 46.0347 63.3645 46.12C63.3645 46.1947 63.3432 46.264 63.3005 46.328L59.8605 51.32L63.5085 56.472C63.5298 56.4933 63.5458 56.5253 63.5565 56.568C63.5672 56.6 63.5725 56.6373 63.5725 56.68C63.5725 56.7653 63.5405 56.84 63.4765 56.904C63.4125 56.968 63.3325 57 63.2365 57H62.2605C62.1645 57 62.0792 56.9733 62.0045 56.92C61.9405 56.8667 61.8818 56.8027 61.8285 56.728L58.8525 52.584L55.8925 56.728C55.8392 56.8027 55.7805 56.8667 55.7165 56.92C55.6525 56.9733 55.5725 57 55.4765 57H54.5325ZM64.7375 57C64.6522 57 64.5722 56.968 64.4975 56.904C64.4335 56.84 64.4015 56.76 64.4015 56.664C64.4015 56.632 64.4068 56.5947 64.4175 56.552C64.4388 56.4987 64.4708 56.44 64.5135 56.376L67.2975 52.744L64.6895 49.304C64.6468 49.24 64.6148 49.1867 64.5935 49.144C64.5828 49.1013 64.5775 49.0587 64.5775 49.016C64.5775 48.92 64.6095 48.84 64.6735 48.776C64.7375 48.712 64.8175 48.68 64.9135 48.68H65.7295C65.8468 48.68 65.9375 48.712 66.0015 48.776C66.0655 48.8293 66.1135 48.8827 66.1455 48.936L68.2735 51.704L70.4015 48.952C70.4442 48.8987 70.4922 48.84 70.5455 48.776C70.6095 48.712 70.7002 48.68 70.8175 48.68H71.6015C71.6975 48.68 71.7775 48.712 71.8415 48.776C71.9055 48.84 71.9375 48.92 71.9375 49.016C71.9375 49.0587 71.9268 49.1013 71.9055 49.144C71.8948 49.1867 71.8682 49.24 71.8255 49.304L69.1855 52.776L71.9695 56.376C72.0122 56.44 72.0388 56.4933 72.0495 56.536C72.0708 56.5787 72.0815 56.6213 72.0815 56.664C72.0815 56.76 72.0495 56.84 71.9855 56.904C71.9215 56.968 71.8415 57 71.7455 57H70.8975C70.7908 57 70.7055 56.9733 70.6415 56.92C70.5775 56.8667 70.5242 56.8133 70.4815 56.76L68.2415 53.832L65.9695 56.76C65.9268 56.8027 65.8735 56.856 65.8095 56.92C65.7562 56.9733 65.6708 57 65.5535 57H64.7375ZM73.3625 57C73.2772 57 73.1972 56.968 73.1225 56.904C73.0585 56.84 73.0265 56.76 73.0265 56.664C73.0265 56.632 73.0318 56.5947 73.0425 56.552C73.0638 56.4987 73.0958 56.44 73.1385 56.376L75.9225 52.744L73.3145 49.304C73.2718 49.24 73.2398 49.1867 73.2185 49.144C73.2078 49.1013 73.2025 49.0587 73.2025 49.016C73.2025 48.92 73.2345 48.84 73.2985 48.776C73.3625 48.712 73.4425 48.68 73.5385 48.68H74.3545C74.4718 48.68 74.5625 48.712 74.6265 48.776C74.6905 48.8293 74.7385 48.8827 74.7705 48.936L76.8985 51.704L79.0265 48.952C79.0692 48.8987 79.1172 48.84 79.1705 48.776C79.2345 48.712 79.3252 48.68 79.4425 48.68H80.2265C80.3225 48.68 80.4025 48.712 80.4665 48.776C80.5305 48.84 80.5625 48.92 80.5625 49.016C80.5625 49.0587 80.5518 49.1013 80.5305 49.144C80.5198 49.1867 80.4932 49.24 80.4505 49.304L77.8105 52.776L80.5945 56.376C80.6372 56.44 80.6638 56.4933 80.6745 56.536C80.6958 56.5787 80.7065 56.6213 80.7065 56.664C80.7065 56.76 80.6745 56.84 80.6105 56.904C80.5465 56.968 80.4665 57 80.3705 57H79.5225C79.4158 57 79.3305 56.9733 79.2665 56.92C79.2025 56.8667 79.1492 56.8133 79.1065 56.76L76.8665 53.832L74.5945 56.76C74.5518 56.8027 74.4985 56.856 74.4345 56.92C74.3812 56.9733 74.2958 57 74.1785 57H73.3625ZM81.9875 57C81.9022 57 81.8222 56.968 81.7475 56.904C81.6835 56.84 81.6515 56.76 81.6515 56.664C81.6515 56.632 81.6568 56.5947 81.6675 56.552C81.6888 56.4987 81.7208 56.44 81.7635 56.376L84.5475 52.744L81.9395 49.304C81.8968 49.24 81.8648 49.1867 81.8435 49.144C81.8328 49.1013 81.8275 49.0587 81.8275 49.016C81.8275 48.92 81.8595 48.84 81.9235 48.776C81.9875 48.712 82.0675 48.68 82.1635 48.68H82.9795C83.0968 48.68 83.1875 48.712 83.2515 48.776C83.3155 48.8293 83.3635 48.8827 83.3955 48.936L85.5235 51.704L87.6515 48.952C87.6942 48.8987 87.7422 48.84 87.7955 48.776C87.8595 48.712 87.9502 48.68 88.0675 48.68H88.8515C88.9475 48.68 89.0275 48.712 89.0915 48.776C89.1555 48.84 89.1875 48.92 89.1875 49.016C89.1875 49.0587 89.1768 49.1013 89.1555 49.144C89.1448 49.1867 89.1182 49.24 89.0755 49.304L86.4355 52.776L89.2195 56.376C89.2622 56.44 89.2888 56.4933 89.2995 56.536C89.3208 56.5787 89.3315 56.6213 89.3315 56.664C89.3315 56.76 89.2995 56.84 89.2355 56.904C89.1715 56.968 89.0915 57 88.9955 57H88.1475C88.0408 57 87.9555 56.9733 87.8915 56.92C87.8275 56.8667 87.7742 56.8133 87.7315 56.76L85.4915 53.832L83.2195 56.76C83.1768 56.8027 83.1235 56.856 83.0595 56.92C83.0062 56.9733 82.9208 57 82.8035 57H81.9875ZM99.2064 57.16C98.257 57.16 97.4517 56.984 96.7904 56.632C96.1397 56.28 95.6384 55.784 95.2864 55.144C94.945 54.504 94.753 53.752 94.7104 52.888C94.6997 52.4187 94.6944 51.9227 94.6944 51.4C94.6944 50.8667 94.6997 50.36 94.7104 49.88C94.753 49.016 94.945 48.2693 95.2864 47.64C95.6384 47 96.145 46.5093 96.8064 46.168C97.4677 45.816 98.2677 45.64 99.2064 45.64C99.953 45.64 100.604 45.7467 101.158 45.96C101.713 46.1733 102.166 46.4453 102.518 46.776C102.881 47.096 103.148 47.432 103.318 47.784C103.5 48.136 103.596 48.4453 103.606 48.712C103.617 48.808 103.59 48.888 103.526 48.952C103.462 49.0053 103.377 49.032 103.27 49.032H102.326C102.22 49.032 102.14 49.0107 102.086 48.968C102.044 48.9253 102.001 48.8507 101.958 48.744C101.862 48.4667 101.702 48.1947 101.478 47.928C101.265 47.6613 100.972 47.4427 100.598 47.272C100.236 47.0907 99.7717 47 99.2064 47C98.353 47 97.665 47.2293 97.1424 47.688C96.6304 48.1467 96.353 48.904 96.3104 49.96C96.2784 50.9093 96.2784 51.8587 96.3104 52.808C96.353 53.8747 96.6357 54.6427 97.1584 55.112C97.681 55.5707 98.3637 55.8 99.2064 55.8C99.7717 55.8 100.273 55.6933 100.71 55.48C101.158 55.2667 101.51 54.9467 101.766 54.52C102.022 54.0827 102.15 53.528 102.15 52.856V52.184H99.7504C99.6437 52.184 99.553 52.152 99.4784 52.088C99.4144 52.0133 99.3824 51.9173 99.3824 51.8V51.288C99.3824 51.1707 99.4144 51.08 99.4784 51.016C99.553 50.9413 99.6437 50.904 99.7504 50.904H103.366C103.484 50.904 103.574 50.9413 103.638 51.016C103.702 51.08 103.734 51.1707 103.734 51.288V52.824C103.734 53.6987 103.553 54.4613 103.19 55.112C102.838 55.7627 102.321 56.2693 101.638 56.632C100.956 56.984 100.145 57.16 99.2064 57.16ZM108.129 57.16C107.596 57.16 107.11 57.0533 106.673 56.84C106.236 56.6267 105.884 56.3387 105.617 55.976C105.35 55.6133 105.217 55.2027 105.217 54.744C105.217 54.008 105.516 53.4213 106.113 52.984C106.71 52.5467 107.489 52.2587 108.449 52.12L110.833 51.784V51.32C110.833 50.808 110.684 50.408 110.385 50.12C110.097 49.832 109.622 49.688 108.961 49.688C108.492 49.688 108.108 49.784 107.809 49.976C107.51 50.168 107.302 50.4133 107.185 50.712C107.121 50.872 107.009 50.952 106.849 50.952H106.129C106.012 50.952 105.921 50.92 105.857 50.856C105.804 50.7813 105.777 50.696 105.777 50.6C105.777 50.44 105.836 50.2427 105.953 50.008C106.081 49.7733 106.273 49.544 106.529 49.32C106.785 49.096 107.11 48.9093 107.505 48.76C107.91 48.6 108.401 48.52 108.977 48.52C109.617 48.52 110.156 48.6053 110.593 48.776C111.03 48.936 111.372 49.1547 111.617 49.432C111.873 49.7093 112.054 50.024 112.161 50.376C112.278 50.728 112.337 51.0853 112.337 51.448V56.632C112.337 56.7387 112.3 56.8293 112.225 56.904C112.161 56.968 112.076 57 111.969 57H111.233C111.116 57 111.025 56.968 110.961 56.904C110.897 56.8293 110.865 56.7387 110.865 56.632V55.944C110.726 56.136 110.54 56.328 110.305 56.52C110.07 56.7013 109.777 56.856 109.425 56.984C109.073 57.1013 108.641 57.16 108.129 57.16ZM108.465 55.96C108.902 55.96 109.302 55.8693 109.665 55.688C110.028 55.496 110.31 55.2027 110.513 54.808C110.726 54.4133 110.833 53.9173 110.833 53.32V52.872L108.977 53.144C108.22 53.2507 107.649 53.432 107.265 53.688C106.881 53.9333 106.689 54.248 106.689 54.632C106.689 54.9307 106.774 55.1813 106.945 55.384C107.126 55.576 107.35 55.72 107.617 55.816C107.894 55.912 108.177 55.96 108.465 55.96ZM115.005 57C114.898 57 114.808 56.968 114.733 56.904C114.669 56.8293 114.637 56.7387 114.637 56.632V49.048C114.637 48.9413 114.669 48.856 114.733 48.792C114.808 48.7173 114.898 48.68 115.005 48.68H115.725C115.832 48.68 115.917 48.7173 115.981 48.792C116.056 48.856 116.093 48.9413 116.093 49.048V49.608C116.338 49.2773 116.648 49.016 117.021 48.824C117.394 48.6213 117.842 48.52 118.365 48.52C119.57 48.5093 120.424 49 120.925 49.992C121.17 49.544 121.528 49.1867 121.997 48.92C122.466 48.6533 123 48.52 123.597 48.52C124.152 48.52 124.653 48.648 125.101 48.904C125.56 49.16 125.917 49.5493 126.173 50.072C126.44 50.584 126.573 51.2293 126.573 52.008V56.632C126.573 56.7387 126.536 56.8293 126.461 56.904C126.397 56.968 126.312 57 126.205 57H125.453C125.346 57 125.256 56.968 125.181 56.904C125.117 56.8293 125.085 56.7387 125.085 56.632V52.152C125.085 51.5547 125 51.0853 124.829 50.744C124.658 50.4027 124.429 50.1627 124.141 50.024C123.853 49.8853 123.538 49.816 123.197 49.816C122.92 49.816 122.637 49.8853 122.349 50.024C122.061 50.1627 121.821 50.4027 121.629 50.744C121.448 51.0853 121.357 51.5547 121.357 52.152V56.632C121.357 56.7387 121.32 56.8293 121.245 56.904C121.181 56.968 121.096 57 120.989 57H120.237C120.13 57 120.04 56.968 119.965 56.904C119.901 56.8293 119.869 56.7387 119.869 56.632V52.152C119.869 51.5547 119.778 51.0853 119.597 50.744C119.416 50.4027 119.181 50.1627 118.893 50.024C118.605 49.8853 118.301 49.816 117.981 49.816C117.704 49.816 117.421 49.8853 117.133 50.024C116.845 50.1627 116.605 50.4027 116.413 50.744C116.232 51.0853 116.141 51.5493 116.141 52.136V56.632C116.141 56.7387 116.104 56.8293 116.029 56.904C115.965 56.968 115.88 57 115.773 57H115.005ZM132.184 57.16C131.075 57.16 130.195 56.824 129.544 56.152C128.893 55.4693 128.536 54.5413 128.472 53.368C128.461 53.2293 128.456 53.0533 128.456 52.84C128.456 52.616 128.461 52.4347 128.472 52.296C128.515 51.5387 128.691 50.8773 129 50.312C129.309 49.736 129.731 49.2933 130.264 48.984C130.808 48.6747 131.443 48.52 132.168 48.52C132.979 48.52 133.656 48.6907 134.2 49.032C134.755 49.3733 135.176 49.8587 135.464 50.488C135.752 51.1173 135.896 51.8533 135.896 52.696V52.968C135.896 53.0853 135.859 53.176 135.784 53.24C135.72 53.304 135.635 53.336 135.528 53.336H129.992C129.992 53.3467 129.992 53.368 129.992 53.4C129.992 53.432 129.992 53.4587 129.992 53.48C130.013 53.9173 130.109 54.328 130.28 54.712C130.451 55.0853 130.696 55.3893 131.016 55.624C131.347 55.8587 131.731 55.976 132.168 55.976C132.552 55.976 132.872 55.9173 133.128 55.8C133.384 55.6827 133.592 55.5547 133.752 55.416C133.912 55.2667 134.019 55.1493 134.072 55.064C134.168 54.936 134.243 54.8613 134.296 54.84C134.349 54.808 134.435 54.792 134.552 54.792H135.336C135.432 54.792 135.512 54.824 135.576 54.888C135.651 54.9413 135.683 55.0213 135.672 55.128C135.661 55.288 135.576 55.4853 135.416 55.72C135.256 55.944 135.027 56.168 134.728 56.392C134.44 56.616 134.077 56.8027 133.64 56.952C133.213 57.0907 132.728 57.16 132.184 57.16ZM129.992 52.232H134.376V52.184C134.376 51.704 134.285 51.2773 134.104 50.904C133.933 50.5307 133.683 50.2373 133.352 50.024C133.021 49.8 132.627 49.688 132.168 49.688C131.709 49.688 131.315 49.8 130.984 50.024C130.664 50.2373 130.419 50.5307 130.248 50.904C130.077 51.2773 129.992 51.704 129.992 52.184V52.232ZM140.689 57.16C140.092 57.16 139.58 57.0853 139.153 56.936C138.726 56.7867 138.38 56.6053 138.113 56.392C137.846 56.1787 137.644 55.9653 137.505 55.752C137.377 55.5387 137.308 55.368 137.297 55.24C137.286 55.1227 137.324 55.032 137.409 54.968C137.494 54.904 137.58 54.872 137.665 54.872H138.385C138.438 54.872 138.481 54.8827 138.513 54.904C138.556 54.9147 138.609 54.9573 138.673 55.032C138.812 55.1813 138.966 55.3307 139.137 55.48C139.308 55.6293 139.516 55.752 139.761 55.848C140.017 55.944 140.332 55.992 140.705 55.992C141.249 55.992 141.697 55.8907 142.049 55.688C142.401 55.4747 142.577 55.1653 142.577 54.76C142.577 54.4933 142.502 54.28 142.353 54.12C142.214 53.96 141.958 53.816 141.585 53.688C141.222 53.56 140.721 53.4267 140.081 53.288C139.441 53.1387 138.934 52.9573 138.561 52.744C138.188 52.52 137.921 52.2587 137.761 51.96C137.601 51.6507 137.521 51.304 137.521 50.92C137.521 50.5253 137.638 50.1467 137.873 49.784C138.108 49.4107 138.449 49.1067 138.897 48.872C139.356 48.6373 139.926 48.52 140.609 48.52C141.164 48.52 141.638 48.5893 142.033 48.728C142.428 48.8667 142.753 49.0427 143.009 49.256C143.265 49.4587 143.457 49.6613 143.585 49.864C143.713 50.0667 143.782 50.2373 143.793 50.376C143.804 50.4827 143.772 50.5733 143.697 50.648C143.622 50.712 143.537 50.744 143.441 50.744H142.769C142.694 50.744 142.63 50.728 142.577 50.696C142.534 50.664 142.492 50.6267 142.449 50.584C142.342 50.4453 142.214 50.3067 142.065 50.168C141.926 50.0293 141.74 49.9173 141.505 49.832C141.281 49.736 140.982 49.688 140.609 49.688C140.076 49.688 139.676 49.8 139.409 50.024C139.142 50.248 139.009 50.5307 139.009 50.872C139.009 51.0747 139.068 51.256 139.185 51.416C139.302 51.576 139.526 51.72 139.857 51.848C140.188 51.976 140.678 52.1147 141.329 52.264C142.033 52.4027 142.588 52.5893 142.993 52.824C143.398 53.0587 143.686 53.3307 143.857 53.64C144.028 53.9493 144.113 54.3067 144.113 54.712C144.113 55.16 143.985 55.5707 143.729 55.944C143.473 56.3173 143.089 56.616 142.577 56.84C142.065 57.0533 141.436 57.16 140.689 57.16Z" fill="#98A1BB"/>
</svg>
