<svg width="70" height="70" viewBox="0 0 70 70" fill="none" xmlns="http://www.w3.org/2000/svg">
<rect width="70" height="70" rx="10" fill="#2FEFB1" fill-opacity="0.2"/>
<path d="M39.3889 30.6111H48.6522C49.315 30.6111 49.9668 30.7806 50.5457 31.1033C51.1246 31.426 51.6115 31.8914 51.96 32.4552C52.3085 33.0189 52.5071 33.6624 52.537 34.3245C52.5669 34.9867 52.4271 35.6454 52.1308 36.2383L45.3253 49.8494C45.0022 50.4959 44.5055 51.0396 43.8907 51.4194C43.2759 51.7993 42.5674 52.0003 41.8447 52H34.0339C33.7169 52 33.4 51.9611 33.0908 51.8833L25.7778 50.0556M39.3889 30.6111V20.8889C39.3889 19.8575 38.9792 18.8683 38.2499 18.139C37.5206 17.4097 36.5314 17 35.5 17H35.3153C34.3431 17 33.5556 17.7875 33.5556 18.7597C33.5556 20.1481 33.1453 21.5053 32.3733 22.6603L25.7778 32.5556V50.0556M39.3889 30.6111H35.5M25.7778 50.0556H21.8889C20.8575 50.0556 19.8683 49.6458 19.139 48.9165C18.4097 48.1872 18 47.1981 18 46.1667V34.5C18 33.4686 18.4097 32.4794 19.139 31.7501C19.8683 31.0208 20.8575 30.6111 21.8889 30.6111H26.75" stroke="#2FEFB1" stroke-width="3" stroke-linecap="round" stroke-linejoin="round"/>
</svg>
